<?xml version="1.0" encoding="utf-8"?>
<!-- Generator: Adobe Illustrator 25.4.6, SVG Export Plug-In . SVG Version: 6.00 Build 0)  -->
<svg version="1.1" xmlns="http://www.w3.org/2000/svg" xmlns:xlink="http://www.w3.org/1999/xlink" x="0px" y="0px"
	 viewBox="0 0 400 400" style="enable-background:new 0 0 400 400;" xml:space="preserve">
<style type="text/css">
	.st0{fill:none;stroke:#231F20;stroke-miterlimit:10;}
	.st1{fill:#FFFFFF;}
	.st2{fill:#808285;}
	.st3{fill:#A7A9AC;}
</style>
<g id="Info">
</g>
<g id="Logo-02">
</g>
<g id="Logo-01">
</g>
<g id="HQ">
	<rect x="-14.6" y="-14.6" width="429.2" height="429.2"/>
	<g>
		<g>
			<g>
				<path class="st1" d="M140.7,294.4V307c0,3.4-2.9,6.2-6.4,6.2c-3.5,0-6.3-2.8-6.3-6.2v-12.6c0-3.5-2.9-6.4-6.4-6.4
					s-6.4,2.9-6.4,6.4V307c0,3.4-2.8,6.2-6.3,6.2s-6.4-2.8-6.4-6.2v-12.6c0-3.5-2.7-6.4-6.2-6.4s-6.4,2.9-6.4,6.4V307
					c0,3.4-2.8,6.2-6.3,6.2s-6.4-2.8-6.4-6.2v-12.6c0-10.5,8.6-19,19-19c4.8,0,9.2,1.8,12.6,4.8c3.3-3,7.8-4.8,12.6-4.8
					C132.1,275.4,140.7,283.9,140.7,294.4z M115.3,326.7c0,3.5-2.8,6.3-6.3,6.3s-6.3-2.8-6.3-6.3c0-3.5,2.8-6.3,6.3-6.3
					S115.3,323.2,115.3,326.7z"/>
				<path class="st1" d="M186.1,294.4v12.6c0,3.5-2.9,6.3-6.3,6.3c-3.5,0-6.3-2.8-6.3-6.3v-12.6h-0.1c0-3.4-2.8-6.2-6.2-6.2
					c-3.5,0-6.4,2.8-6.4,6.2c0,1.5,0.5,2.7,1.3,3.9c0.4,0.5,2.2,2,2.7,2.5c1.7,1.7,2.1,4.6,1,6.9c-1.5,3.3-5.3,4.5-8.5,3l-1.3-0.8
					c-4.8-3.4-7.9-9.1-7.9-15.4v-0.1c0-10.4,8.5-18.9,19-18.9c0,0,5.1,0.1,8.1,1.9c1.1-1.2,2.7-1.9,4.5-1.9c3.4,0,6.3,2.8,6.3,6.3
					V294.4L186.1,294.4C186.2,294.3,186.1,294.3,186.1,294.4z"/>
				<path class="st1" d="M231.6,294.3v12.6c0,3.5-2.8,6.3-6.3,6.3s-6.3-2.8-6.3-6.3v-12.6c0-3.5-2.9-6.3-6.4-6.3
					c-3.5,0-6.3,2.8-6.3,6.3v12.6c0,3.5-2.8,6.3-6.3,6.3s-6.4-2.8-6.4-6.3v-12.6c0-10.4,8.5-18.9,18.9-18.9S231.6,283.8,231.6,294.3
					z"/>
				<path class="st1" d="M259,347.6c-10.2,0-18.6-8.3-18.9-18.3c-0.1-3.1,3-6.1,6.3-6.1c3.6,0,6.3,2.1,6.4,6.1
					c0.2,3.9,2.7,5.8,6.2,5.8c3.5,0,6.3-2.9,6.3-6.3l-0.1-16.7c-1.9,0.7-4.2,1.1-6.4,1.1c-10.4,0-18.9-8.5-18.9-18.9v-0.1
					c0-10.4,8.5-18.9,18.9-18.9c10.4,0,18.9,8.5,18.9,18.9c0.1,23.5,0.2,27.3,0.2,34.5C277.9,339.1,269.5,347.6,259,347.6z
					 M265.2,294.3c0-3.6-2.8-6.3-6.3-6.3c-3.5,0-6.2,2.7-6.2,6.3c0,3.5,2.7,6.3,6.2,6.3C262.4,300.6,265.2,297.8,265.2,294.3z"/>
				<path class="st1" d="M316.4,275.4c3.5,0,6.1,2.9,6.1,6.3c0,3.5-2.7,6.2-6.1,6.2h-12.9c-1.5,0.1-3.1,0.7-4.4,1.8
					c-2.4,2.5-2.4,6.6,0,8.9c1.1,1,2.3,1.7,3.6,1.8c1.1,0.1,3-0.1,3.6-0.1c2.6,0.2,4.8,1.7,5.7,4.2c1.4,4-1.7,7.8-5.5,8.5
					c-5.8,0.9-11.9-0.8-16.4-5.4c-7.3-7.4-7.3-19.5,0-26.8c4.1-4.1,9.4-5.5,14.6-5.5H316.4z M303.8,291c1.7,0,3.1,1.5,3.1,3.2
					c0,1.7-1.4,3.1-3.1,3.1c-1.7,0-3.1-1.4-3.1-3.1C300.7,292.6,302,291,303.8,291z"/>
			</g>
			<g>
				<g>
					<path class="st2" d="M143.7,186.3c0,0,19.4-34,62.6,9.4l20.3,20.3L200,242.5L143.7,186.3z"/>
				</g>
				<g>
					<path class="st2" d="M161.7,77.4c8.7,8.7,8.4,23.1-0.7,32.2c-9.1,9.1-23.5,9.4-32.2,0.7c-14.4-14.4-11.6-44.6-11.6-44.6
						S146.6,62.4,161.7,77.4z"/>
				</g>
				<g>
					<path class="st3" d="M257.3,185.3c-20.8-20.9-35.4-11.8-44.8,0.8c-8.2,10.9-11.2,24.7-25.2,21.2c-20.9-5.3-49.5-27-49.5-27
						l62.3,62.3L257.3,185.3z"/>
				</g>
				<g>
					<path class="st1" d="M124.4,90.2c0,14.1,11.5,25.6,25.6,25.6c6.4,0,12.3-2.4,16.8-6.3l29.7,29.7c-3.8,5-3.4,12.1,1.1,16.6
						l19.3,19.3c0.7,0.7,1.7,0.7,2.4,0c0.7-0.7,0.7-1.7,0-2.4l-19.3-19.3c-3.6-3.6-3.6-9.5,0-13.1c3.6-3.6,9.5-3.6,13.1,0l19.3,19.3
						c0.7,0.7,1.7,0.7,2.4,0c0.7-0.7,0.7-1.7,0-2.4l-19.3-19.3c-4.5-4.5-11.7-4.9-16.6-1.1L169.1,107c3.9-4.5,6.3-10.4,6.3-16.8
						c0-14.1-11.5-25.6-25.6-25.6h-23.9c-0.4,0-0.9,0.2-1.2,0.5s-0.5,0.8-0.5,1.2L124.4,90.2z M159,96.9l-8.5-8.5l0-20.4
						c3,0.1,5.9,0.8,8.5,1.9c0,0.1-0.1,0.3-0.1,0.4V96.9z M129.7,99.3c-1.2-2.6-1.9-5.5-1.9-8.5h20.4l8.5,8.5l-26.5,0
						C130,99.3,129.8,99.3,129.7,99.3z M147.1,85l-17-17h17L147.1,85z M144.7,87.4h-17l0-17L144.7,87.4z M149.9,112.4
						c-7.6,0-14.4-3.9-18.4-9.8l28.4,0l4.4,4.4C160.5,110.4,155.4,112.4,149.9,112.4z M172.1,90.2c0,5.5-2,10.5-5.4,14.4l-4.4-4.4
						V71.9C168.2,75.9,172.1,82.6,172.1,90.2z"/>
					<path class="st1" d="M229.6,164.7c0.7-0.7,0.7-1.7,0-2.4L209.3,142c-0.7-0.7-1.7-0.7-2.4,0c-0.7,0.7-0.7,1.7,0,2.4l20.3,20.3
						C227.9,165.4,228.9,165.4,229.6,164.7z"/>
					<path class="st1" d="M201.7,147.2c-0.7,0.7-0.7,1.7,0,2.4l20.3,20.3c0.7,0.7,1.7,0.7,2.4,0c0.7-0.7,0.7-1.7,0-2.4l-20.3-20.3
						C203.5,146.6,202.4,146.6,201.7,147.2z"/>
					<path class="st1" d="M295.4,147.1l-94.2-94.2c-0.7-0.7-1.7-0.7-2.4,0l-18.7,18.7l2.4,2.4L200,56.5l91.8,91.8L200,240.2
						l-91.8-91.8l21.3-21.3l-2.4-2.4l-22.5,22.5c-0.7,0.7-0.7,1.7,0,2.4l94.2,94.2c0.7,0.7,1.7,0.7,2.4,0l94.2-94.2
						C296.1,148.9,296.1,147.8,295.4,147.1z"/>
				</g>
			</g>
		</g>
	</g>
</g>
</svg>
