<?xml version="1.0" encoding="utf-8"?>
<!-- Generator: Adobe Illustrator 25.4.6, SVG Export Plug-In . SVG Version: 6.00 Build 0)  -->
<svg version="1.1" xmlns="http://www.w3.org/2000/svg" xmlns:xlink="http://www.w3.org/1999/xlink" x="0px" y="0px"
	 viewBox="0 0 400 400" style="enable-background:new 0 0 400 400;" xml:space="preserve">
<style type="text/css">
	.st0{fill:none;stroke:#231F20;stroke-miterlimit:10;}
	.st1{fill:#FFFFFF;}
	.st2{fill:#808285;}
	.st3{fill:#A7A9AC;}
</style>
<g id="Info">
</g>
<g id="Logo-02">
</g>
<g id="Logo-01">
</g>
<g id="HQ">
	<rect x="-14.6" y="-14.6" width="429.2" height="429.2"/>
	<g>
		<g>
			<g>
				<path class="st2" d="M119.8,254.2c0,0,27.7-48.5,89.3,13.4l28.9,28.9L200,334.4L119.8,254.2z"/>
			</g>
			<g>
				<path class="st2" d="M145.3,98.9c12.4,12.4,12,33-1,46c-13,13-33.6,13.4-46,1c-20.5-20.5-16.6-63.6-16.6-63.6
					S123.8,77.4,145.3,98.9z"/>
			</g>
			<g>
				<path class="st3" d="M281.7,252.7c-29.6-29.8-50.5-16.8-64,1.2c-11.6,15.6-16,35.3-35.9,30.3c-29.8-7.5-70.6-38.6-70.6-38.6
					l88.8,88.8L281.7,252.7z"/>
			</g>
			<g>
				<path class="st1" d="M92.1,117.1c0,20.1,16.4,36.5,36.5,36.5c9.2,0,17.6-3.4,24-9l42.3,42.3c-5.4,7.1-4.9,17.3,1.6,23.7
					l27.6,27.6c0.9,0.9,2.5,0.9,3.4,0c0.9-0.9,0.9-2.5,0-3.4l-27.6-27.6c-5.2-5.2-5.2-13.6,0-18.8c5.2-5.2,13.6-5.2,18.8,0
					l27.6,27.6c0.9,0.9,2.5,0.9,3.4,0c0.9-0.9,0.9-2.5,0-3.4L222,185c-6.5-6.5-16.7-7-23.7-1.6L156,141.1c5.6-6.4,9-14.8,9-24
					c0-20.1-16.4-36.5-36.5-36.5h-34c-0.6,0-1.2,0.2-1.7,0.7c-0.5,0.5-0.7,1.1-0.7,1.7L92.1,117.1z M141.5,126.6l-12.1-12.1l0-29
					c4.3,0.1,8.4,1.1,12.2,2.8c0,0.2-0.1,0.4-0.1,0.6V126.6z M99.7,130.1c-1.7-3.7-2.7-7.8-2.8-12.2h29l12.1,12.1l-37.8,0
					C100.1,130,99.9,130.1,99.7,130.1z M124.6,109.7l-24.2-24.2h24.2L124.6,109.7z M121.2,113.1H96.9l0-24.2L121.2,113.1z
					 M128.6,148.8c-10.9,0-20.5-5.5-26.2-13.9l40.5,0l6.3,6.3C143.6,145.9,136.4,148.8,128.6,148.8z M160.2,117.1
					c0,7.9-2.9,15-7.6,20.6l-6.3-6.3V90.9C154.7,96.6,160.2,106.2,160.2,117.1z"/>
				<path class="st1" d="M242.2,223.4c0.9-0.9,0.9-2.5,0-3.4L213.3,191c-0.9-0.9-2.5-0.9-3.4,0c-0.9,0.9-0.9,2.5,0,3.4l28.9,28.9
					C239.7,224.3,241.3,224.3,242.2,223.4z"/>
				<path class="st1" d="M202.5,198.4c-0.9,0.9-0.9,2.5,0,3.4l28.9,28.9c0.9,0.9,2.5,0.9,3.4,0c0.9-0.9,0.9-2.5,0-3.4l-28.9-28.9
					C205,197.5,203.4,197.5,202.5,198.4z"/>
				<path class="st1" d="M336.1,198.3L201.7,63.9c-0.9-0.9-2.5-0.9-3.4,0l-26.7,26.7L175,94l25-25l131,131L200,331L69,200l30.4-30.4
					l-3.4-3.4l-32.1,32.1c-0.9,0.9-0.9,2.5,0,3.4l134.4,134.4c0.9,0.9,2.5,0.9,3.4,0l134.4-134.4C337,200.8,337,199.2,336.1,198.3z"
					/>
			</g>
		</g>
	</g>
</g>
</svg>
